<svg width="29" height="28" viewBox="0 0 29 28" fill="none" xmlns="http://www.w3.org/2000/svg">
<path id="Vector" d="M25.5333 6.29922C26.3453 6.29922 27.0033 6.57922 27.5213 7.12522C28.0533 7.69922 28.3333 8.32922 28.3333 9.09922V24.4992C28.3333 25.2692 28.0533 25.8992 27.5213 26.4732C27.0033 27.0192 26.3453 27.2992 25.5333 27.2992H3.13325C2.32125 27.2992 1.66325 27.0192 1.14525 26.4732C0.613252 25.8992 0.333252 25.2692 0.333252 24.4992V9.09922C0.333252 8.32922 0.613252 7.69922 1.14525 7.12522C1.66325 6.57922 2.32125 6.29922 3.13325 6.29922H8.73325V3.49922C8.73325 2.68722 9.01325 2.02922 9.54525 1.51122C10.0633 0.979219 10.7213 0.699219 11.5333 0.699219H17.1333C17.9453 0.699219 18.6033 0.979219 19.1213 1.51122C19.6533 2.02922 19.9333 2.68722 19.9333 3.49922V6.29922H25.5333ZM3.13325 9.09922V24.4992H25.5333V9.09922H3.13325ZM17.1333 6.29922V3.49922H11.5333V6.29922H17.1333Z" fill="#D8F520"/>
</svg>
