<svg width="685" height="617" viewBox="0 0 685 617" fill="none" xmlns="http://www.w3.org/2000/svg">
<path d="M249.978 272.937C232.481 310.944 64.3901 290.844 67.3935 373.323C70.624 462.041 275.462 343.137 304.718 427.037C325.045 485.332 295.782 555.792 221.072 591.479" stroke="url(#paint0_linear_1325_29412)" stroke-width="8.7" stroke-linecap="square"/>
<path d="M327.939 111.354C354.549 42.4747 505.026 -3.65221 553.953 62.7942C606.581 134.266 372.226 168.521 401.475 252.401C421.798 310.683 488.524 347.657 569.224 329.15" stroke="url(#paint1_linear_1325_29412)" stroke-width="8.7" stroke-linecap="round"/>
<g clip-path="url(#clip0_1325_29412)">
<path d="M332.067 102.804C332.583 103.052 333.046 103.4 333.427 103.828C333.809 104.255 334.103 104.754 334.291 105.295C334.48 105.836 334.56 106.409 334.527 106.981C334.494 107.553 334.348 108.113 334.098 108.629L325.16 127.139C332.351 131.8 337.594 138.923 339.907 147.174C342.22 155.425 341.444 164.236 337.723 171.955L336.116 175.284L336.1 175.318L334.444 178.747C333.388 180.93 331.509 182.604 329.22 183.402C326.93 184.201 324.417 184.058 322.233 183.005L275.37 160.374C274.288 159.851 273.319 159.121 272.52 158.224C271.72 157.327 271.105 156.282 270.709 155.147C270.313 154.012 270.145 152.811 270.214 151.611C270.282 150.412 270.587 149.237 271.109 148.155L274.387 141.383C278.114 133.663 284.533 127.571 292.436 124.251C300.34 120.931 309.184 120.612 317.306 123.353L326.242 104.835C326.49 104.319 326.838 103.856 327.266 103.475C327.693 103.093 328.192 102.799 328.733 102.611C329.274 102.422 329.847 102.342 330.419 102.375C330.991 102.408 331.551 102.554 332.067 102.804ZM317.486 132.814C311.172 129.793 303.918 129.395 297.312 131.709C290.706 134.023 285.286 138.86 282.238 145.161L280.63 148.49C280.386 148.995 280.244 149.543 280.212 150.103C280.18 150.663 280.258 151.223 280.443 151.753C280.628 152.282 280.915 152.77 281.288 153.189C281.661 153.607 282.113 153.948 282.618 154.192L322.568 173.484C324.679 174.51 327.233 173.629 328.259 171.518L328.27 171.496L329.878 168.167C332.92 161.862 333.339 154.608 331.043 147.995C328.747 141.382 323.924 135.948 317.63 132.884L317.555 132.855L317.486 132.814ZM280.781 180.682C281.821 181.184 282.619 182.079 283 183.17C283.38 184.261 283.312 185.458 282.809 186.499L273.981 204.768L288.329 211.697L297.147 193.423C297.396 192.907 297.744 192.445 298.172 192.064C298.6 191.682 299.098 191.389 299.639 191.2C300.18 191.012 300.753 190.932 301.325 190.964C301.897 190.997 302.457 191.142 302.972 191.391C303.488 191.64 303.95 191.989 304.331 192.416C304.713 192.844 305.006 193.342 305.195 193.883C305.383 194.424 305.463 194.997 305.431 195.569C305.398 196.141 305.253 196.701 305.004 197.217L296.175 215.485L301.135 217.881C304.236 219.378 306.614 222.046 307.748 225.297C308.882 228.548 308.677 232.117 307.18 235.217L305.573 238.546C301.845 246.266 295.427 252.359 287.523 255.679C279.62 258.999 270.776 259.318 262.654 256.576L253.715 275.086C253.212 276.128 252.315 276.928 251.223 277.308C250.13 277.689 248.931 277.621 247.889 277.118C246.848 276.615 246.048 275.718 245.667 274.626C245.286 273.533 245.355 272.334 245.858 271.292L254.805 252.779C247.609 248.124 242.361 241.002 240.046 232.75C237.731 224.498 238.509 215.685 242.233 207.966L243.841 204.637C244.582 203.1 245.619 201.725 246.892 200.59C248.165 199.454 249.649 198.58 251.26 198.019C252.871 197.457 254.576 197.218 256.279 197.316C257.983 197.414 259.65 197.846 261.186 198.589L266.135 200.979L274.953 182.705C275.201 182.188 275.549 181.726 275.977 181.344C276.404 180.963 276.903 180.669 277.444 180.48C277.985 180.292 278.558 180.212 279.13 180.245C279.702 180.278 280.262 180.424 280.778 180.673L280.781 180.682ZM262.46 247.102C268.774 250.13 276.03 250.531 282.64 248.218C289.249 245.904 294.672 241.065 297.719 234.761L299.327 231.431C299.57 230.926 299.712 230.378 299.745 229.819C299.777 229.259 299.698 228.698 299.513 228.169C299.329 227.639 299.042 227.151 298.668 226.733C298.295 226.314 297.843 225.973 297.338 225.729L257.389 206.437C256.37 205.947 255.199 205.881 254.131 206.253C253.064 206.625 252.188 207.406 251.695 208.423L250.087 211.752C247.04 218.068 246.625 225.336 248.934 231.958C251.243 238.58 256.087 244.015 262.401 247.067L262.46 247.102Z" fill="#D8F520"/>
</g>
<defs>
<linearGradient id="paint0_linear_1325_29412" x1="151.675" y1="304.702" x2="248.357" y2="581.964" gradientUnits="userSpaceOnUse">
<stop stop-color="#D8F520"/>
<stop offset="1" stop-color="#D8F520" stop-opacity="0"/>
</linearGradient>
<linearGradient id="paint1_linear_1325_29412" x1="274.001" y1="168" x2="531.083" y2="342.45" gradientUnits="userSpaceOnUse">
<stop offset="0.237122" stop-color="#D8F520"/>
<stop offset="1" stop-color="#D8F520" stop-opacity="0"/>
</linearGradient>
<clipPath id="clip0_1325_29412">
<rect width="174.278" height="174.278" fill="white" transform="translate(179.008 136.371) rotate(-19.2237)"/>
</clipPath>
</defs>
</svg>
