<svg width="29" height="30" viewBox="0 0 29 30" fill="none" xmlns="http://www.w3.org/2000/svg">
<path id="Vector" d="M18.6665 10V0H0.666504V30H8.6665V24H10.6665V30H28.6665V10H18.6665ZM5.6665 26H3.6665V24H5.6665V26ZM5.6665 21H3.6665V19H5.6665V21ZM5.6665 16H3.6665V14H5.6665V16ZM5.6665 11H3.6665V9H5.6665V11ZM5.6665 6H3.6665V4H5.6665V6ZM13.6665 4H15.6665V6H13.6665V4ZM10.6665 21H8.6665V19H10.6665V21ZM10.6665 16H8.6665V14H10.6665V16ZM10.6665 11H8.6665V9H10.6665V11ZM10.6665 6H8.6665V4H10.6665V6ZM15.6665 26H13.6665V24H15.6665V26ZM15.6665 21H13.6665V19H15.6665V21ZM15.6665 16H13.6665V14H15.6665V16ZM15.6665 11H13.6665V9H15.6665V11ZM26.6665 28H18.6665V26H20.6665V24H18.6665V21H20.6665V19H18.6665V16H20.6665V14H18.6665V12H26.6665V28Z" fill="#D8F520"/>
</svg>
