<svg width="340" height="533" viewBox="0 0 340 533" fill="none" xmlns="http://www.w3.org/2000/svg">
<path fill-rule="evenodd" clip-rule="evenodd" d="M26.4695 0L84.2728 189.501L43.3412 0H43.636L84.9598 189.273L59.6324 0H59.9304L85.6639 189.143L75.4557 0H75.755L86.3773 189.112L91.1694 0H91.4684L87.0923 189.179L107.122 0H107.419L87.801 189.345L123.684 0H123.977L88.4955 189.607L141.283 0H141.569L89.1685 189.962L160.453 0H160.727L89.8123 190.407L181.906 0H182.158L90.4201 190.937L206.65 0H206.867L90.9851 191.546L236.208 0H236.362L91.5011 192.227L273.03 0H273.072L91.9626 192.972L295.936 21.3977L92.3643 193.774L309.649 52.0378L92.702 194.624L320.917 84.2786L92.9719 195.513L329.616 117.767L93.1712 196.43L335.653 152.136L93.2975 197.366L338.959 187.009L93.3495 198.311L339.5 222.004L93.3266 199.254L337.269 256.737L93.2292 200.184L332.291 290.828L93.0582 201.092L324.62 323.904L92.8155 201.968L314.341 355.602L92.5038 202.801L301.565 385.575L92.1266 203.584L286.433 413.494L91.6878 204.307L269.111 439.054L91.1925 204.962L249.788 461.974L90.6459 205.543L228.677 482.003L90.054 206.042L206.008 498.923L89.4234 206.455L182.03 512.547L88.761 206.777L157.005 522.726L88.0739 207.004L131.208 529.349L87.3698 207.134L104.922 532.343L86.6564 207.166L78.4333 531.676L85.9414 207.098L52.0336 527.354L85.2327 206.933L26.0117 519.425L84.5382 206.671L0.652742 507.977L83.8652 206.315L0 429.802V429.322L83.2214 205.87L0 377.934V377.287L82.6136 205.34L0 341.054V340.354L82.0486 204.732L0 312.952V312.242L81.5326 204.051L0 290.389V289.687L81.0712 203.305L0 271.499V270.811L80.6694 202.503L0 255.125V254.451L80.3317 201.653L0 240.495V239.834L80.0618 200.765L0 227.068V226.417L79.8626 199.847L0 214.436V213.792L79.7363 198.911L0 202.273V201.633L79.6842 197.967L0 190.297V189.658L79.7071 197.024L0 178.242V177.6L79.8045 196.094L0 165.834V165.187L79.9755 195.186L0 152.769V152.113L80.2182 194.31L0 138.676V138.007L80.5299 193.476L0 123.072V122.39L80.9072 192.694L0 105.289V104.592L81.3459 191.971L0 84.3429V83.635L81.8413 191.315L0 58.6881V57.9809L82.3879 190.735L0 25.7213V25.045L82.9797 190.235L7.66391 0H7.9426L83.6103 189.822L26.1806 0H26.4695Z" fill="#D8F520" fill-opacity="0.29"/>
</svg>
