<svg width="77" height="77" viewBox="0 0 77 77" fill="none" xmlns="http://www.w3.org/2000/svg">
<g id="Group 64">
<g id="Clip path group">
<mask id="mask0_2593_27599" style="mask-type:luminance" maskUnits="userSpaceOnUse" x="0" y="0" width="77" height="77">
<g id="285da26281">
<path id="Vector" d="M0.169922 0H76.8306V76.6454H0.169922V0Z" fill="white"/>
</g>
</mask>
<g mask="url(#mask0_2593_27599)">
<g id="Group">
<path id="Vector_2" d="M0.169922 0H76.8306V76.6454H0.169922V0Z" fill="#FFD600"/>
</g>
</g>
</g>
<path id="Vector_3" d="M50.2946 57.3749C51.7688 59.761 53.3647 62.056 56.7539 62.056C59.6112 62.056 61.1006 60.6425 61.1006 58.6819C61.1006 56.3414 59.5656 55.5055 56.4195 54.1376L54.7021 53.4081C49.7474 51.3107 46.4494 48.6662 46.4494 43.1036C46.4494 37.9665 50.3706 34.0605 56.5107 34.0605C60.8879 34.0605 64.0339 35.5804 66.2985 39.5472L60.9335 42.9668C59.7632 40.8694 58.4865 40.0335 56.5107 40.0335C54.5045 40.0335 53.2279 41.3102 53.2279 42.9668C53.2279 45.0186 54.5045 45.8545 57.453 47.116L59.1704 47.8607C65.0218 50.338 68.3199 52.8913 68.3199 58.6059C68.3199 64.7613 63.4564 68.1353 56.9211 68.1353C50.5378 68.1353 46.9053 64.9285 44.884 60.9617L50.2946 57.3749ZM25.6276 57.542C26.7067 59.4722 28.3329 60.9617 30.6887 60.9617C32.938 60.9617 34.2451 60.0802 34.2451 56.6149V34.0605H41.3427V57.7092C41.3427 64.8677 37.1784 68.1353 31.1142 68.1353C25.6124 68.1353 21.6608 64.4117 20.0498 60.9617L25.6276 57.542Z" fill="#000001"/>
</g>
</svg>
