<svg width="30" height="28" viewBox="0 0 30 28" fill="none" xmlns="http://www.w3.org/2000/svg">
<g id="Group">
<path id="Vector" d="M26.05 2.30078H3.95C2.87304 2.30078 2 3.28296 2 4.49453V23.507C2 24.7186 2.87304 25.7008 3.95 25.7008H26.05C27.127 25.7008 28 24.7186 28 23.507V4.49453C28 3.28296 27.127 2.30078 26.05 2.30078Z" stroke="#D8F520" stroke-width="3" stroke-linejoin="round"/>
<path id="Vector_2" d="M2 4.49453C2 3.91271 2.20545 3.35472 2.57114 2.94332C2.93684 2.53191 3.43283 2.30078 3.95 2.30078H26.05C26.5672 2.30078 27.0632 2.53191 27.4289 2.94332C27.7946 3.35472 28 3.91271 28 4.49453V11.0758H2V4.49453Z" stroke="#D8F520" stroke-width="3"/>
<path id="Vector_3" d="M4.6002 6.68789C4.6002 5.88017 5.18223 5.22539 5.9002 5.22539C6.61817 5.22539 7.2002 5.88017 7.2002 6.68789C7.2002 7.49561 6.61817 8.15039 5.9002 8.15039C5.18223 8.15039 4.6002 7.49561 4.6002 6.68789Z" fill="#D8F520"/>
<path id="Vector_4" d="M8.5001 6.68789C8.5001 5.88017 9.08213 5.22539 9.8001 5.22539C10.5181 5.22539 11.1001 5.88017 11.1001 6.68789C11.1001 7.49561 10.5181 8.15039 9.8001 8.15039C9.08213 8.15039 8.5001 7.49561 8.5001 6.68789Z" fill="#D8F520"/>
</g>
</svg>
