<svg width="95" height="27" viewBox="0 0 95 27" fill="none" xmlns="http://www.w3.org/2000/svg">
<g id="Group 70">
<g id="Clip path group">
<mask id="mask0_2593_27646" style="mask-type:luminance" maskUnits="userSpaceOnUse" x="78" y="9" width="17" height="18">
<g id="6f357b48d2">
<path id="Vector" d="M78.9597 9.01953H94.9887V26.9995H78.9597V9.01953Z" fill="white"/>
</g>
</mask>
<g mask="url(#mask0_2593_27646)">
<g id="Group">
<path id="Vector_2" d="M87.4253 9.59766C87.1965 9.59766 86.9676 9.64583 86.775 9.76626L80.5127 13.3671C80.1032 13.5959 79.8503 14.0294 79.8503 14.4991V21.6886C79.8503 22.1583 80.1032 22.5919 80.5127 22.8207L82.1385 23.76C82.9333 24.1574 83.2344 24.1454 83.5957 24.1454C84.7759 24.1454 85.4382 23.4349 85.4382 22.2065V15.1133C85.4382 15.0049 85.3539 14.9326 85.2576 14.9326H84.4748C84.3664 14.9326 84.2821 15.0169 84.2821 15.1133V22.2065C84.2821 22.7484 83.7161 23.3024 82.7767 22.8448L81.0787 21.8452C81.0185 21.8211 80.9703 21.7609 80.9703 21.6886V14.4991C80.9703 14.4389 81.0185 14.3666 81.0787 14.3305L87.3289 10.7417C87.3891 10.7056 87.4614 10.7056 87.5216 10.7417L93.7718 14.3305C93.8321 14.3666 93.8802 14.4268 93.8802 14.4991V21.6886C93.8802 21.7609 93.8441 21.8332 93.7839 21.8572L87.5216 25.446C87.4614 25.4821 87.3891 25.4821 87.3289 25.446L85.7272 24.4946C85.6791 24.4705 85.6068 24.4705 85.5586 24.4946C85.1251 24.7475 85.0408 24.7716 84.6193 24.9161C84.523 24.9523 84.3664 25.0125 84.6675 25.1811L86.775 26.4215C86.9797 26.5299 87.1965 26.5901 87.4253 26.5901C87.6541 26.5901 87.8829 26.5299 88.0756 26.4215L94.3379 22.8327C94.7473 22.5919 95.0002 22.1583 95.0002 21.6886V14.4991C95.0002 14.0415 94.7473 13.5959 94.3379 13.3671L88.0756 9.76626C87.8829 9.65787 87.6541 9.6097 87.4253 9.6097V9.59766ZM89.0992 14.7399C87.3169 14.7399 86.2571 15.4986 86.2571 16.7511C86.2571 18.1119 87.3048 18.4853 89.0149 18.6539C91.0742 18.8586 91.2308 19.1597 91.2308 19.5571C91.2308 20.2555 90.6648 20.5446 89.3521 20.5446C87.7023 20.5446 87.3289 20.1351 87.2085 19.3162C87.1965 19.2319 87.1242 19.1597 87.0399 19.1597H86.221C86.1006 19.1597 86.0404 19.2199 86.0404 19.3403C86.0404 20.388 86.6064 21.6284 89.3521 21.6284C91.3392 21.6284 92.4712 20.8577 92.4712 19.4969C92.4712 18.1601 91.556 17.7988 89.6291 17.5459C87.6902 17.281 87.4975 17.1605 87.4975 16.7029C87.4975 16.3296 87.6541 15.8358 89.0992 15.8358C90.3878 15.8358 90.8575 16.1128 91.0502 16.9679C91.0743 17.0522 91.1465 17.1244 91.2308 17.1244H92.0377C92.0858 17.1244 92.134 17.0883 92.1701 17.0522C92.2063 17.016 92.2304 16.9679 92.2304 16.9197C92.0979 15.4384 91.1104 14.7399 89.0992 14.7399Z" fill="#83CD29"/>
</g>
</g>
</g>
<g id="Clip path group_2">
<mask id="mask1_2593_27646" style="mask-type:luminance" maskUnits="userSpaceOnUse" x="0" y="0" width="76" height="27">
<g id="0439c3622e">
<path id="Vector_3" d="M0.5 0H75.876V27H0.5V0Z" fill="white"/>
</g>
</mask>
<g mask="url(#mask1_2593_27646)">
<g id="Group_2">
<path id="Vector_4" d="M50.5981 0.179688C50.5259 0.179688 50.4536 0.191735 50.3934 0.227865C50.2609 0.312162 50.2007 0.420548 50.1887 0.577103V10.7051C50.1887 10.8015 50.1525 10.8858 50.0562 10.946C49.9719 10.9941 49.8756 10.9941 49.7792 10.946L48.1173 9.98254C47.8524 9.83803 47.5874 9.83803 47.3225 9.98254L40.6869 13.8001C40.434 13.9446 40.2895 14.2216 40.2895 14.4986V22.1217C40.2895 22.4348 40.4219 22.6636 40.6869 22.8202L47.3225 26.6257C47.5874 26.7823 47.8524 26.7823 48.1173 26.6257L54.7529 22.8202C55.0178 22.6636 55.1624 22.4348 55.1503 22.1217V3.11814C55.1503 2.82911 54.9938 2.55213 54.7409 2.41965L50.7908 0.215819C50.7306 0.17969 50.6583 0.179688 50.5981 0.179688ZM7.89429 9.69352C7.77386 9.70556 7.65344 9.7176 7.53301 9.78986L0.897415 13.6074C0.632472 13.7519 0.5 13.9808 0.5 14.2939L0.512045 24.5182C0.512045 24.6627 0.5843 24.7952 0.716772 24.8675C0.837199 24.9397 0.993758 24.9397 1.11418 24.8675L5.05219 22.6155C5.30509 22.4709 5.46164 22.218 5.46164 21.929V17.148C5.46164 16.859 5.6182 16.6061 5.85905 16.4616L7.53301 15.4982C7.66548 15.4259 7.79795 15.3898 7.94246 15.3898C8.07493 15.3898 8.21945 15.4259 8.33988 15.4982L10.0138 16.4616C10.2547 16.6061 10.4112 16.859 10.4112 17.148V21.929C10.4112 22.206 10.5798 22.4709 10.8207 22.6155L14.7587 24.8675C14.8791 24.9397 15.0357 24.9397 15.1561 24.8675C15.2765 24.7952 15.3608 24.6627 15.3608 24.5182L15.3729 14.2939C15.3729 13.9808 15.2404 13.7519 14.9755 13.5954L8.33988 9.78986C8.21945 9.72965 8.09902 9.70556 7.97859 9.69352H7.89429ZM67.5424 9.78986C67.3979 9.78986 67.2654 9.82599 67.1329 9.89824L60.4973 13.7038C60.2565 13.8483 60.0999 14.1132 60.0999 14.3902V22.0254C60.0999 22.3023 60.2685 22.5673 60.5094 22.7118L67.0968 26.4451C67.3376 26.5775 67.6387 26.5896 67.8796 26.4571L71.8778 24.2412C71.9982 24.181 72.0825 24.0486 72.0825 23.904C72.0825 23.7595 72.0103 23.6271 71.8898 23.5548L65.2061 19.7493C65.0856 19.677 65.0013 19.5325 65.0013 19.388V17.0035C65.0013 16.859 65.0856 16.7265 65.2061 16.6543L67.2895 15.462C67.4099 15.4018 67.5544 15.4018 67.6869 15.462L69.7582 16.6543C69.8907 16.7386 69.963 16.8469 69.963 17.0035V18.8822C69.963 19.0387 70.0232 19.1471 70.1677 19.2314C70.2881 19.3037 70.4326 19.3037 70.5651 19.2314L74.5392 16.9192C74.7801 16.7747 74.9367 16.5218 74.9367 16.2328V14.3902C74.9367 14.0891 74.8042 13.8603 74.5392 13.7038L67.9398 9.89824C67.8194 9.82599 67.6869 9.78986 67.5424 9.78986ZM47.6958 15.4861C47.7319 15.4861 47.7681 15.4861 47.8042 15.5102L50.0682 16.8229C50.1405 16.859 50.1766 16.9192 50.1766 16.9915V19.6168C50.1766 19.677 50.1405 19.7493 50.0682 19.7854L47.8042 21.0981C47.7319 21.1342 47.6597 21.1342 47.5995 21.0981L45.3234 19.7854C45.2632 19.7493 45.215 19.677 45.215 19.6168V16.9915C45.215 16.9192 45.2632 16.859 45.3234 16.8229L47.5995 15.5102C47.6356 15.4861 47.6597 15.4861 47.6958 15.4861Z" fill="#404137"/>
</g>
</g>
</g>
<g id="Clip path group_3">
<mask id="mask2_2593_27646" style="mask-type:luminance" maskUnits="userSpaceOnUse" x="20" y="9" width="50" height="18">
<g id="75447b74f5">
<path id="Vector_5" d="M20.3831 9.01953H69.7104V26.9995H20.3831V9.01953Z" fill="white"/>
</g>
</mask>
<g mask="url(#mask2_2593_27646)">
<g id="Group_3">
<path id="Vector_6" d="M27.8377 9.75391C27.6932 9.75391 27.5607 9.79004 27.4403 9.85025L20.8047 13.6558C20.5518 13.8003 20.3953 14.0773 20.3953 14.3543V21.9774C20.3953 22.2905 20.5277 22.5193 20.8047 22.6638L27.4403 26.4814C27.7053 26.6379 27.9702 26.6379 28.2351 26.4814L34.8707 22.6638C35.1357 22.5193 35.2681 22.2905 35.2681 21.9774V14.3543C35.2681 14.0773 35.1236 13.8003 34.8707 13.6558L28.2351 9.85025C28.1147 9.79004 27.9822 9.75391 27.8377 9.75391ZM67.5309 16.5581C67.4947 16.5581 67.4706 16.5581 67.4466 16.5701L66.17 17.3048C66.1218 17.3409 66.0857 17.377 66.0857 17.4372V18.8944C66.0857 18.9546 66.1218 19.0028 66.17 19.0269L67.4466 19.7615C67.4947 19.7856 67.5429 19.7856 67.5911 19.7615L68.8676 19.0269C68.9158 19.0028 68.9519 18.9546 68.9519 18.8944V17.4372C68.9519 17.3891 68.9158 17.3409 68.8676 17.3048L67.5911 16.5701C67.567 16.5581 67.5549 16.5581 67.5309 16.5581Z" fill="#83CD29"/>
</g>
</g>
</g>
</g>
</svg>
