<svg width="40" height="40" viewBox="0 0 40 40" fill="none" xmlns="http://www.w3.org/2000/svg">
<rect x="0.5" y="0.5" width="39" height="39" rx="19.5" stroke="#D8F520"/>
<path d="M17.8393 26.0607L17.9106 26.1319C17.8118 26.1785 17.7126 26.224 17.613 26.2685C15.9084 27.0303 14.207 27.4327 12.5 27.4922V24.3385L15.4737 23.7352C15.4808 23.736 15.4949 23.7383 15.5172 23.7452C15.5208 23.7464 15.5242 23.7474 15.5271 23.7484L17.8393 26.0607ZM26.2675 17.613C26.2256 17.7068 26.1828 17.8002 26.1391 17.8933L26.0911 17.8448L23.7856 15.5156L24.3456 12.5H27.4921C27.432 14.207 27.0293 15.9085 26.2675 17.613Z" fill="#D8F520" stroke="#D8F520" stroke-width="3"/>
</svg>
