<svg width="24" height="24" viewBox="0 0 24 24" fill="none" xmlns="http://www.w3.org/2000/svg">
<g id="fluent:puzzle-cube-piece-20-regular">
<path id="Vector" d="M20.6496 1.54861C20.4246 1.32364 20.1194 1.19727 19.8012 1.19727C19.483 1.19727 19.1778 1.32364 18.9528 1.54861L17.148 3.35221C16.923 3.57724 16.7967 3.88241 16.7967 4.20061C16.7967 4.51881 16.923 4.82398 17.148 5.04901L18.9516 6.85261C19.1766 7.07757 19.4818 7.20395 19.8 7.20395C20.1182 7.20395 20.4234 7.07757 20.6484 6.85261L22.452 5.04901C22.677 4.82398 22.8033 4.51881 22.8033 4.20061C22.8033 3.88241 22.677 3.57724 22.452 3.35221L20.6496 1.54861ZM17.9976 4.20061L19.8012 2.39701L21.6048 4.20061L19.8 6.00421L17.9976 4.20061ZM15.5976 3.60061H6.6C5.80435 3.60061 5.04129 3.91668 4.47868 4.47929C3.91607 5.0419 3.6 5.80496 3.6 6.60061V17.4006C3.6 18.1963 3.91607 18.9593 4.47868 19.5219C5.04129 20.0845 5.80435 20.4006 6.6 20.4006H17.4C18.1956 20.4006 18.9587 20.0845 19.5213 19.5219C20.0839 18.9593 20.4 18.1963 20.4 17.4006V8.40061H15.5976V3.60061ZM6.4272 19.1922C5.98181 19.1493 5.56838 18.9419 5.26754 18.6107C4.9667 18.2795 4.80002 17.8481 4.8 17.4006V15.6006H8.4V19.2006H6.6L6.4272 19.1922ZM9.6 15.6006H14.4V19.2006H9.6V15.6006ZM19.1916 17.5734C19.1486 18.0188 18.9413 18.4322 18.6101 18.7331C18.2789 19.0339 17.8475 19.2006 17.4 19.2006H15.6V15.6006H19.2V17.4006L19.1916 17.5734ZM9.6 9.60061H14.4V14.4006H9.6V9.60061ZM15.6 14.4006V9.60061H19.2V14.4006H15.6ZM9.6 4.80061H14.4V8.40061H9.6V4.80061ZM6.6 4.80061H8.4V8.40061H4.8V6.60061L4.8084 6.42661C4.85163 5.98143 5.05906 5.5683 5.39027 5.26771C5.72147 4.96712 6.15273 4.8006 6.6 4.80061ZM4.8 14.4006V9.60061H8.4V14.4006H4.8Z" fill="#D8D8D8"/>
</g>
</svg>
