<svg width="80" height="79" viewBox="0 0 80 79" fill="none" xmlns="http://www.w3.org/2000/svg">
<g id="Group 77">
<g id="Clip path group">
<mask id="mask0_2593_27663" style="mask-type:luminance" maskUnits="userSpaceOnUse" x="0" y="0" width="63" height="60">
<g id="6d2b4c7979">
<path id="Vector" d="M0.5 0H62.1193V59.4905H0.5V0Z" fill="white"/>
</g>
</mask>
<g mask="url(#mask0_2593_27663)">
<g id="Group">
<g id="Clip path group_2">
<mask id="mask1_2593_27663" style="mask-type:luminance" maskUnits="userSpaceOnUse" x="0" y="-1" width="60" height="60">
<g id="da95dbe16c">
<path id="Vector_2" d="M39.7223 -0.0136719C19.6734 -0.0136719 20.9274 8.73493 20.9274 8.73493L20.9566 17.7897H40.0722V20.5018H13.3453C13.3453 20.5018 0.528564 19.0437 0.528564 39.3842C0.528564 59.7101 11.7268 58.9957 11.7268 58.9957H18.4049V49.5617C18.4049 49.5617 18.0403 38.3052 29.4135 38.3052H48.398C48.398 38.3052 59.0567 38.4802 59.0567 27.9381V10.5284C59.0567 10.5284 60.6752 -0.0136719 39.7223 -0.0136719ZM29.1802 6.08119C31.0758 6.08119 32.6214 7.62678 32.6214 9.53689C32.6214 11.4616 31.0758 13.0072 29.1802 13.0072C27.2701 13.0072 25.7391 11.4616 25.7391 9.53689C25.7391 7.62678 27.2701 6.08119 29.1802 6.08119Z" fill="white"/>
</g>
</mask>
<g mask="url(#mask1_2593_27663)">
<g id="Group_2">
<path id="Vector_3" d="M0.528809 0V59.7092H60.6754V0H0.528809Z" fill="url(#paint0_linear_2593_27663)"/>
</g>
</g>
</g>
</g>
</g>
</g>
<g id="Clip path group_3">
<mask id="mask2_2593_27663" style="mask-type:luminance" maskUnits="userSpaceOnUse" x="17" y="18" width="63" height="61">
<g id="d65e31e5c0">
<path id="Vector_4" d="M17.3262 18.4297H79.485V78.9992H17.3262V18.4297Z" fill="white"/>
</g>
</mask>
<g mask="url(#mask2_2593_27663)">
<g id="Group_3">
<g id="Clip path group_4">
<mask id="mask3_2593_27663" style="mask-type:luminance" maskUnits="userSpaceOnUse" x="20" y="19" width="60" height="60">
<g id="5fd89b80ad">
<path id="Vector_5" d="M40.2916 78.9694C60.3405 78.9694 59.0865 70.2354 59.0865 70.2354L59.0574 61.166H39.9271V58.454H66.6541C66.6541 58.454 79.4854 59.9121 79.4854 39.5861C79.4854 19.2456 68.2871 19.9601 68.2871 19.9601H61.609V29.4086C61.609 29.4086 61.9736 40.6651 50.6004 40.6651H31.6159C31.6159 40.6651 20.9572 40.4902 20.9572 51.0177V68.4274C20.9572 68.4274 19.3387 78.9694 40.2916 78.9694ZM50.8337 72.8746C48.9382 72.8746 47.3926 71.329 47.3926 69.4189C47.3926 67.5088 48.9382 65.9632 50.8337 65.9632C52.7438 65.9632 54.2748 67.5088 54.2748 69.4189C54.2748 71.329 52.7438 72.8746 50.8337 72.8746Z" fill="white"/>
</g>
</mask>
<g mask="url(#mask3_2593_27663)">
<g id="Group_4">
<path id="Vector_6" d="M19.3381 19.2461V78.9699H79.4848V19.2461H19.3381Z" fill="url(#paint1_linear_2593_27663)"/>
</g>
</g>
</g>
</g>
</g>
</g>
</g>
<defs>
<linearGradient id="paint0_linear_2593_27663" x1="0.769867" y1="-0.247192" x2="61.1625" y2="59.2164" gradientUnits="userSpaceOnUse">
<stop stop-color="#387EB8"/>
<stop offset="0.125" stop-color="#387EB8"/>
<stop offset="0.140625" stop-color="#387EB8"/>
<stop offset="0.15625" stop-color="#387DB7"/>
<stop offset="0.171875" stop-color="#387DB6"/>
<stop offset="0.1875" stop-color="#387CB5"/>
<stop offset="0.203125" stop-color="#387CB4"/>
<stop offset="0.21875" stop-color="#387BB3"/>
<stop offset="0.234375" stop-color="#387BB2"/>
<stop offset="0.25" stop-color="#387AB1"/>
<stop offset="0.265625" stop-color="#387AB1"/>
<stop offset="0.28125" stop-color="#3879B0"/>
<stop offset="0.296875" stop-color="#3879AF"/>
<stop offset="0.3125" stop-color="#3878AE"/>
<stop offset="0.328125" stop-color="#3778AD"/>
<stop offset="0.34375" stop-color="#3777AC"/>
<stop offset="0.359375" stop-color="#3777AB"/>
<stop offset="0.375" stop-color="#3776AB"/>
<stop offset="0.390625" stop-color="#3776AA"/>
<stop offset="0.40625" stop-color="#3775A9"/>
<stop offset="0.421875" stop-color="#3775A8"/>
<stop offset="0.4375" stop-color="#3774A7"/>
<stop offset="0.453125" stop-color="#3774A6"/>
<stop offset="0.46875" stop-color="#3773A5"/>
<stop offset="0.484375" stop-color="#3773A4"/>
<stop offset="0.494335" stop-color="#3772A4"/>
<stop offset="0.5" stop-color="#3772A3"/>
<stop offset="0.505665" stop-color="#3772A3"/>
<stop offset="0.515625" stop-color="#3771A2"/>
<stop offset="0.53125" stop-color="#3771A2"/>
<stop offset="0.546875" stop-color="#3771A1"/>
<stop offset="0.5625" stop-color="#3770A0"/>
<stop offset="0.578125" stop-color="#37709F"/>
<stop offset="0.59375" stop-color="#376F9E"/>
<stop offset="0.609375" stop-color="#376F9D"/>
<stop offset="0.625" stop-color="#376E9D"/>
<stop offset="0.640625" stop-color="#366E9C"/>
<stop offset="0.65625" stop-color="#366D9B"/>
<stop offset="0.671875" stop-color="#366D9A"/>
<stop offset="0.6875" stop-color="#366C99"/>
<stop offset="0.703125" stop-color="#366C98"/>
<stop offset="0.71875" stop-color="#366B97"/>
<stop offset="0.734375" stop-color="#366B97"/>
<stop offset="0.75" stop-color="#366A96"/>
<stop offset="0.765625" stop-color="#366A95"/>
<stop offset="0.78125" stop-color="#366994"/>
<stop offset="0.8125" stop-color="#366994"/>
<stop offset="0.875" stop-color="#366994"/>
<stop offset="1" stop-color="#366994"/>
</linearGradient>
<linearGradient id="paint1_linear_2593_27663" x1="19.0204" y1="19.5889" x2="80.7506" y2="77.6272" gradientUnits="userSpaceOnUse">
<stop stop-color="#FFE052"/>
<stop offset="0.125" stop-color="#FFE052"/>
<stop offset="0.1875" stop-color="#FFE052"/>
<stop offset="0.21875" stop-color="#FFE052"/>
<stop offset="0.234375" stop-color="#FFDF51"/>
<stop offset="0.25" stop-color="#FFDF51"/>
<stop offset="0.265625" stop-color="#FFDE50"/>
<stop offset="0.28125" stop-color="#FFDD4F"/>
<stop offset="0.296875" stop-color="#FFDD4E"/>
<stop offset="0.3125" stop-color="#FFDC4E"/>
<stop offset="0.328125" stop-color="#FFDB4D"/>
<stop offset="0.34375" stop-color="#FFDB4C"/>
<stop offset="0.359375" stop-color="#FFDA4B"/>
<stop offset="0.375" stop-color="#FFD94B"/>
<stop offset="0.390625" stop-color="#FFD94A"/>
<stop offset="0.40625" stop-color="#FFD849"/>
<stop offset="0.421875" stop-color="#FFD748"/>
<stop offset="0.4375" stop-color="#FFD748"/>
<stop offset="0.453125" stop-color="#FFD647"/>
<stop offset="0.46875" stop-color="#FFD546"/>
<stop offset="0.482837" stop-color="#FFD545"/>
<stop offset="0.484375" stop-color="#FFD445"/>
<stop offset="0.5" stop-color="#FFD445"/>
<stop offset="0.515625" stop-color="#FFD444"/>
<stop offset="0.517163" stop-color="#FFD343"/>
<stop offset="0.53125" stop-color="#FFD343"/>
<stop offset="0.546875" stop-color="#FFD242"/>
<stop offset="0.5625" stop-color="#FFD242"/>
<stop offset="0.578125" stop-color="#FFD141"/>
<stop offset="0.59375" stop-color="#FFD040"/>
<stop offset="0.609375" stop-color="#FFD03F"/>
<stop offset="0.625" stop-color="#FFCF3F"/>
<stop offset="0.640625" stop-color="#FFCE3E"/>
<stop offset="0.65625" stop-color="#FFCE3D"/>
<stop offset="0.671875" stop-color="#FFCD3C"/>
<stop offset="0.6875" stop-color="#FFCC3C"/>
<stop offset="0.703125" stop-color="#FFCC3B"/>
<stop offset="0.71875" stop-color="#FFCB3A"/>
<stop offset="0.734375" stop-color="#FFCA39"/>
<stop offset="0.75" stop-color="#FFCA39"/>
<stop offset="0.765625" stop-color="#FFC938"/>
<stop offset="0.78125" stop-color="#FFC837"/>
<stop offset="0.796875" stop-color="#FFC836"/>
<stop offset="0.8125" stop-color="#FFC735"/>
<stop offset="0.828125" stop-color="#FFC635"/>
<stop offset="0.84375" stop-color="#FFC634"/>
<stop offset="0.859375" stop-color="#FFC533"/>
<stop offset="0.875" stop-color="#FFC432"/>
<stop offset="0.890625" stop-color="#FFC432"/>
<stop offset="0.90625" stop-color="#FFC331"/>
<stop offset="0.9375" stop-color="#FFC331"/>
<stop offset="1" stop-color="#FFC331"/>
</linearGradient>
</defs>
</svg>
