<svg width="91" height="83" viewBox="0 0 91 83" fill="none" xmlns="http://www.w3.org/2000/svg">
<g id="Group 72">
<path id="Vector" d="M53.6763 41.3158C53.6763 42.3781 53.4639 43.4212 53.0582 44.4063C52.6526 45.4107 52.0731 46.2799 51.3005 47.0332C50.5472 47.8059 49.678 48.3853 48.6929 48.791C47.7077 49.2159 46.6647 49.4091 45.6023 49.4091C44.5206 49.4091 43.4969 49.2159 42.5118 48.791C41.5267 48.3853 40.6575 47.8059 39.8848 47.0332C39.1315 46.2799 38.5521 45.4107 38.1464 44.4063C37.7408 43.4212 37.5283 42.3781 37.5283 41.3158C37.5283 40.2341 37.7408 39.2103 38.1464 38.2059C38.5521 37.2208 39.1315 36.3516 39.8848 35.579C40.6575 34.8257 41.5267 34.2462 42.5118 33.8212C43.4969 33.4156 44.5206 33.2031 45.6023 33.2031C46.6647 33.2031 47.7077 33.4156 48.6929 33.8212C49.678 34.2462 50.5472 34.8257 51.3005 35.579C52.0731 36.3516 52.6526 37.2208 53.0582 38.2059C53.4639 39.2103 53.6763 40.2341 53.6763 41.3158Z" fill="#53C1DE"/>
<g id="Clip path group">
<mask id="mask0_2593_27631" style="mask-type:luminance" maskUnits="userSpaceOnUse" x="0" y="0" width="91" height="83">
<g id="f624883aca">
<path id="Vector_2" d="M0.5 0H90.7048V83H0.5V0Z" fill="white"/>
</g>
</mask>
<g mask="url(#mask0_2593_27631)">
<g id="Group">
<path id="Vector_3" d="M17.4593 55.6689C18.2512 55.92 19.0432 56.1904 19.8544 56.4222C19.6033 57.4845 19.3715 58.5276 19.1591 59.6093C17.3047 69.4217 18.7534 77.206 23.3699 79.8909C28.1216 82.6337 36.1183 79.8136 43.9026 72.9565C44.5207 72.4157 45.1388 71.8555 45.7569 71.2567C46.5296 72.01 47.3408 72.744 48.1521 73.4394C55.6852 79.9488 63.1411 82.5951 67.7383 79.9102C72.5093 77.1674 74.0546 68.7843 72.0457 58.6049C71.8912 57.8322 71.7174 57.021 71.5242 56.2097C72.0844 56.0552 72.6252 55.8813 73.166 55.7075C83.3455 52.3272 90.7048 46.8609 90.7048 41.24C90.7048 35.8895 83.7704 30.6935 74.1705 27.3712C73.224 27.0622 72.2775 26.7531 71.331 26.4634C71.4856 25.826 71.6208 25.1692 71.756 24.5125C73.9387 13.9661 72.5093 5.48642 67.6997 2.70494C63.0639 0.020048 55.4921 2.80152 47.8623 9.48479C47.0897 10.1415 46.3557 10.8369 45.6603 11.5323C45.1775 11.0687 44.6752 10.6051 44.1923 10.1608C36.1763 3.01399 28.1409 0.000726104 23.3313 2.82084C18.7148 5.50573 17.3434 13.5025 19.275 23.4694C19.4681 24.4545 19.6806 25.4203 19.9317 26.4247C18.7921 26.7338 17.6911 27.0815 16.648 27.4678C7.24121 30.7322 0.5 35.9088 0.5 41.24C0.5 46.7643 7.68548 52.3079 17.4593 55.6689ZM41.4302 70.0785C38.5135 72.744 35.1525 74.8688 31.4825 76.3175C29.5317 77.2639 27.2717 77.3412 25.2629 76.5492C22.4621 74.9267 21.3031 68.6877 22.887 60.266C23.0802 59.2809 23.2926 58.2958 23.5438 57.3107C27.4842 58.1606 31.4632 58.7594 35.5002 59.0491C37.8181 62.3521 40.3871 65.5199 43.1107 68.4946C42.5505 69.0354 41.9903 69.5762 41.4302 70.0785ZM63.7979 36.8553C62.9673 35.2907 62.1367 33.7454 61.2482 32.2195C60.379 30.7129 59.4905 29.2255 58.544 27.7575C61.3834 28.1245 64.1069 28.5881 66.6373 29.1869C65.826 31.7945 64.8796 34.3442 63.7979 36.8553ZM63.8365 45.6633C64.9568 48.2323 65.9419 50.8399 66.8111 53.5055C64.0876 54.1236 61.3255 54.6065 58.5247 54.9156C59.4905 53.4282 60.379 51.9023 61.2675 50.3957C62.156 48.8311 63.0059 47.2665 63.8365 45.6633ZM61.789 41.2593C60.6108 43.7124 59.3552 46.1075 57.9838 48.4834C56.651 50.8399 55.2217 53.1192 53.7343 55.3791C51.1074 55.5723 48.3839 55.6689 45.6024 55.6689C42.8402 55.6689 40.1747 55.5723 37.567 55.4178C36.0411 53.1771 34.5924 50.8592 33.2403 48.522C31.8882 46.1655 30.6326 43.7703 29.4544 41.3365C30.6133 38.8834 31.8689 36.5076 33.221 34.1511C34.5538 31.7945 36.0024 29.5153 37.5091 27.2746C40.1553 27.0815 42.8596 26.9656 45.6024 26.9656C48.3646 26.9656 51.0688 27.0815 53.6957 27.2746C55.183 29.496 56.6124 31.7752 57.9838 34.1124C59.3359 36.4496 60.5915 38.8448 61.789 41.2593ZM29.9373 32.2581C29.0681 33.7647 28.2182 35.2907 27.4262 36.8553C26.3252 34.2283 25.3788 31.64 24.6061 29.1483C27.1558 28.5688 29.8407 28.1245 32.6415 27.7575C31.7143 29.2255 30.8065 30.7322 29.9373 32.2581ZM27.4262 45.7985C28.2375 47.3631 29.0681 48.9083 29.9566 50.415C30.8451 51.9602 31.7723 53.5055 32.7381 55.0121C29.9952 54.7031 27.2524 54.2588 24.5675 53.6793C25.3401 51.1297 26.3059 48.5027 27.4262 45.7985ZM45.7376 65.771C43.9412 63.8201 42.1449 61.6761 40.4064 59.3582C42.1062 59.4161 43.8447 59.4548 45.6024 59.4548C47.4181 59.4548 49.1951 59.4161 50.9529 59.3389C49.3497 61.5795 47.5919 63.7236 45.7376 65.771ZM68.7814 71.0829C68.6075 73.2462 67.5645 75.2551 65.8647 76.6265C63.0639 78.249 57.0953 76.1243 50.6438 70.5613C49.9098 69.9239 49.1565 69.2479 48.4032 68.5332C51.1074 65.5392 53.5798 62.3714 55.8398 59.0491C59.8768 58.7208 63.8945 58.1027 67.8542 57.1948C68.028 57.9288 68.1826 58.6435 68.3371 59.3582C69.2063 63.1827 69.3415 67.1618 68.7814 71.0829ZM70.3073 30.1141C71.2151 30.3845 72.1037 30.6549 72.9536 30.9446C81.1628 33.7841 86.9189 37.9949 86.9189 41.2013C86.9189 44.6782 80.7765 49.1594 71.9685 52.0761C71.4856 52.2307 70.9834 52.3852 70.4811 52.5397C69.2449 48.6765 67.7383 44.91 65.9806 41.24C67.6804 37.6279 69.1097 33.9193 70.3073 30.1141ZM50.3348 12.3628C56.9021 6.62605 63.0059 4.38541 65.7874 5.98863C68.762 7.70773 69.921 14.6421 68.0474 23.7592C67.9315 24.358 67.7962 24.9374 67.6417 25.5169C63.7206 24.6284 59.7609 23.991 55.7818 23.6433C53.5026 20.3596 50.9915 17.2111 48.268 14.2558C48.9633 13.5991 49.6394 12.9809 50.3348 12.3628ZM45.641 16.96C47.4953 18.9688 49.2338 21.0936 50.8563 23.2956C47.3601 23.1217 43.864 23.1217 40.3678 23.2956C42.0869 21.0163 43.8833 18.8916 45.641 16.96ZM25.2049 6.12383C28.1602 4.38541 34.7276 6.85784 41.662 13.0196C42.0869 13.4059 42.5312 13.8308 42.9948 14.2558C40.2519 17.2111 37.7409 20.3596 35.4423 23.6433C31.4439 23.991 27.5035 24.6091 23.6017 25.4783C23.3699 24.5897 23.1768 23.6626 22.9836 22.7354C21.3224 14.1785 22.4041 7.72705 25.2049 6.12383ZM17.8842 31.0605C18.8886 30.6935 19.9124 30.3845 20.9361 30.0754C22.1337 33.9193 23.5824 37.6859 25.2435 41.3365C23.5631 45.0259 22.0951 48.8504 20.8782 52.7329C20.1442 52.5397 19.4102 52.3079 18.6955 52.0568C14.9482 50.8592 10.6794 48.9856 7.5889 46.5325C5.81185 45.2963 4.61426 43.384 4.2859 41.24C4.2859 37.9949 9.84885 33.8613 17.8842 31.0605Z" fill="#53C1DE"/>
</g>
</g>
</g>
</g>
</svg>
