<svg width="444" height="467" viewBox="0 0 444 467" fill="none" xmlns="http://www.w3.org/2000/svg">
<path d="M243.199 219.478C220.908 168.316 162.863 150.296 113.542 179.266C64.2201 208.235 42.3336 273.204 64.625 324.367C86.9163 375.53 144.96 393.55 194.282 364.58C243.604 335.61 265.49 270.641 243.199 219.478Z" stroke="url(#paint0_linear_2552_18212)" stroke-opacity="0.22"/>
<path d="M246.699 227.316C224.408 176.154 166.364 158.133 117.042 187.103C67.7203 216.073 45.8339 281.042 68.1252 332.205C90.4165 383.368 148.461 401.388 197.782 372.418C247.104 343.448 268.99 278.479 246.699 227.316Z" stroke="url(#paint1_linear_2552_18212)" stroke-opacity="0.22"/>
<path d="M254.323 234.197C232.032 183.034 173.987 165.014 124.666 193.984C75.3441 222.954 53.4577 287.923 75.749 339.086C98.0403 390.248 156.084 408.268 205.406 379.299C254.728 350.329 276.614 285.36 254.323 234.197Z" stroke="url(#paint2_linear_2552_18212)" stroke-opacity="0.22"/>
<path d="M261.784 241.641C239.493 190.478 181.449 172.458 132.127 201.428C82.8055 230.398 60.9191 295.366 83.2104 346.529C105.502 397.692 163.546 415.712 212.868 386.742C262.189 357.772 284.076 292.803 261.784 241.641Z" stroke="url(#paint3_linear_2552_18212)" stroke-opacity="0.22"/>
<path d="M265.119 249.105C242.827 197.943 184.783 179.923 135.462 208.892C86.14 237.862 64.2536 302.831 86.5449 353.994C108.836 405.157 166.88 423.177 216.202 394.207C265.524 365.237 287.41 300.268 265.119 249.105Z" stroke="url(#paint4_linear_2552_18212)" stroke-opacity="0.22"/>
<path d="M277.675 251.283C255.384 200.12 197.34 182.1 148.018 211.07C98.6964 240.04 76.8099 305.009 99.1013 356.172C121.393 407.334 179.437 425.354 228.758 396.385C278.08 367.415 299.966 302.446 277.675 251.283Z" stroke="url(#paint5_linear_2552_18212)" stroke-opacity="0.22"/>
<path d="M288.585 254.404C266.293 203.241 208.249 185.221 158.928 214.191C109.606 243.161 87.7196 308.13 110.011 359.293C132.302 410.455 190.346 428.476 239.668 399.506C288.99 370.536 310.876 305.567 288.585 254.404Z" stroke="url(#paint6_linear_2552_18212)" stroke-opacity="0.22"/>
<path d="M298.795 248.547C276.503 197.384 218.459 179.364 169.138 208.334C119.816 237.304 97.9296 302.272 120.221 353.435C142.512 404.598 200.556 422.618 249.878 393.648C299.2 364.678 321.086 299.71 298.795 248.547Z" stroke="url(#paint7_linear_2552_18212)" stroke-opacity="0.22"/>
<path d="M307.029 243.824C284.738 192.661 226.694 174.641 177.372 203.611C128.051 232.581 106.164 297.55 128.456 348.713C150.747 399.875 208.791 417.895 258.113 388.926C307.434 359.956 329.321 294.987 307.029 243.824Z" stroke="url(#paint8_linear_2552_18212)" stroke-opacity="0.22"/>
<path d="M319.217 236.834C296.926 185.671 238.881 167.651 189.56 196.621C140.238 225.591 118.352 290.56 140.643 341.722C162.934 392.885 220.978 410.905 270.3 381.935C319.622 352.965 341.508 287.997 319.217 236.834Z" stroke="url(#paint9_linear_2552_18212)" stroke-opacity="0.22"/>
<path d="M329.427 230.978C307.136 179.816 249.092 161.796 199.77 190.766C150.448 219.735 128.562 284.704 150.853 335.867C173.145 387.03 231.189 405.05 280.51 376.08C329.832 347.11 351.718 282.141 329.427 230.978Z" stroke="url(#paint10_linear_2552_18212)" stroke-opacity="0.22"/>
<path d="M333.999 218.978C311.708 167.816 253.663 149.796 204.342 178.766C155.02 207.735 133.134 272.704 155.425 323.867C177.716 375.03 235.76 393.05 285.082 364.08C334.404 335.11 356.29 270.141 333.999 218.978Z" stroke="url(#paint11_linear_2552_18212)" stroke-opacity="0.22"/>
<path d="M337.911 207.355C315.62 156.193 257.576 138.173 208.254 167.143C158.933 196.112 137.046 261.081 159.338 312.244C181.629 363.407 239.673 381.427 288.995 352.457C338.316 323.487 360.203 258.518 337.911 207.355Z" stroke="url(#paint12_linear_2552_18212)" stroke-opacity="0.22"/>
<path d="M344.788 194.035C322.497 142.872 264.453 124.852 215.131 153.822C165.809 182.792 143.923 247.761 166.214 298.924C188.505 350.086 246.55 368.106 295.871 339.136C345.193 310.167 367.079 245.198 344.788 194.035Z" stroke="url(#paint13_linear_2552_18212)" stroke-opacity="0.22"/>
<path d="M350.193 183.9C327.902 132.738 269.858 114.717 220.536 143.687C171.214 172.657 149.328 237.626 171.619 288.789C193.91 339.952 251.955 357.972 301.276 329.002C350.598 300.032 372.484 235.063 350.193 183.9Z" stroke="url(#paint14_linear_2552_18212)" stroke-opacity="0.22"/>
<path d="M355.395 164.975C333.104 113.812 275.06 95.7917 225.738 124.762C176.416 153.732 154.53 218.7 176.821 269.863C199.113 321.026 257.157 339.046 306.478 310.076C355.8 281.106 377.686 216.137 355.395 164.975Z" stroke="url(#paint15_linear_2552_18212)" stroke-opacity="0.22"/>
<path d="M358.153 153.547C335.862 102.384 277.817 84.364 228.496 113.334C179.174 142.304 157.288 207.272 179.579 258.435C201.87 309.598 259.915 327.618 309.236 298.648C358.558 269.678 380.444 204.71 358.153 153.547Z" stroke="url(#paint16_linear_2552_18212)" stroke-opacity="0.22"/>
<path d="M357.76 138.768C335.468 87.6048 277.424 69.5847 228.103 98.5546C178.781 127.525 156.894 192.493 179.186 243.656C201.477 294.819 259.521 312.839 308.843 283.869C358.164 254.899 380.051 189.93 357.76 138.768Z" stroke="url(#paint17_linear_2552_18212)" stroke-opacity="0.22"/>
<path d="M357.036 124.178C334.745 73.0149 276.701 54.9949 227.379 83.9648C178.058 112.935 156.171 177.903 178.463 229.066C200.754 280.229 258.798 298.249 308.12 269.279C357.441 240.309 379.328 175.341 357.036 124.178Z" stroke="url(#paint18_linear_2552_18212)" stroke-opacity="0.22"/>
<path d="M356.306 107.717C334.014 56.5539 275.97 38.5339 226.648 67.5038C177.327 96.4737 155.44 161.442 177.732 212.605C200.023 263.768 258.067 281.788 307.389 252.818C356.71 223.848 378.597 158.88 356.306 107.717Z" stroke="url(#paint19_linear_2552_18212)" stroke-opacity="0.22"/>
<path d="M359.877 93.4765C337.586 42.3137 279.542 24.2937 230.22 53.2636C180.898 82.2335 159.012 147.202 181.303 198.365C203.595 249.528 261.639 267.548 310.96 238.578C360.282 209.608 382.168 144.639 359.877 93.4765Z" stroke="url(#paint20_linear_2552_18212)" stroke-opacity="0.22"/>
<defs>
<linearGradient id="paint0_linear_2552_18212" x1="194.482" y1="365.039" x2="92.3408" y2="191.142" gradientUnits="userSpaceOnUse">
<stop stop-color="#D8F520"/>
<stop offset="0.9999" stop-color="#D8F520" stop-opacity="0.0364583"/>
<stop offset="1" stop-color="#D8F520" stop-opacity="0"/>
</linearGradient>
<linearGradient id="paint1_linear_2552_18212" x1="197.982" y1="372.877" x2="95.8411" y2="198.98" gradientUnits="userSpaceOnUse">
<stop stop-color="#D8F520"/>
<stop offset="0.9999" stop-color="#D8F520" stop-opacity="0.0364583"/>
<stop offset="1" stop-color="#D8F520" stop-opacity="0"/>
</linearGradient>
<linearGradient id="paint2_linear_2552_18212" x1="205.606" y1="379.757" x2="103.465" y2="205.861" gradientUnits="userSpaceOnUse">
<stop stop-color="#D8F520"/>
<stop offset="0.9999" stop-color="#D8F520" stop-opacity="0.0364583"/>
<stop offset="1" stop-color="#D8F520" stop-opacity="0"/>
</linearGradient>
<linearGradient id="paint3_linear_2552_18212" x1="213.067" y1="387.201" x2="110.926" y2="213.304" gradientUnits="userSpaceOnUse">
<stop stop-color="#D8F520"/>
<stop offset="0.9999" stop-color="#D8F520" stop-opacity="0.0364583"/>
<stop offset="1" stop-color="#D8F520" stop-opacity="0"/>
</linearGradient>
<linearGradient id="paint4_linear_2552_18212" x1="216.402" y1="394.666" x2="114.261" y2="220.769" gradientUnits="userSpaceOnUse">
<stop stop-color="#D8F520"/>
<stop offset="0.9999" stop-color="#D8F520" stop-opacity="0.0364583"/>
<stop offset="1" stop-color="#D8F520" stop-opacity="0"/>
</linearGradient>
<linearGradient id="paint5_linear_2552_18212" x1="228.958" y1="396.843" x2="126.817" y2="222.947" gradientUnits="userSpaceOnUse">
<stop stop-color="#D8F520"/>
<stop offset="0.9999" stop-color="#D8F520" stop-opacity="0.0364583"/>
<stop offset="1" stop-color="#D8F520" stop-opacity="0"/>
</linearGradient>
<linearGradient id="paint6_linear_2552_18212" x1="239.868" y1="399.964" x2="137.727" y2="226.068" gradientUnits="userSpaceOnUse">
<stop stop-color="#D8F520"/>
<stop offset="0.9999" stop-color="#D8F520" stop-opacity="0.0364583"/>
<stop offset="1" stop-color="#D8F520" stop-opacity="0"/>
</linearGradient>
<linearGradient id="paint7_linear_2552_18212" x1="250.078" y1="394.107" x2="147.937" y2="220.21" gradientUnits="userSpaceOnUse">
<stop stop-color="#D8F520"/>
<stop offset="0.9999" stop-color="#D8F520" stop-opacity="0.0364583"/>
<stop offset="1" stop-color="#D8F520" stop-opacity="0"/>
</linearGradient>
<linearGradient id="paint8_linear_2552_18212" x1="258.313" y1="389.384" x2="156.171" y2="215.488" gradientUnits="userSpaceOnUse">
<stop stop-color="#D8F520"/>
<stop offset="0.9999" stop-color="#D8F520" stop-opacity="0.0364583"/>
<stop offset="1" stop-color="#D8F520" stop-opacity="0"/>
</linearGradient>
<linearGradient id="paint9_linear_2552_18212" x1="270.5" y1="382.394" x2="168.359" y2="208.498" gradientUnits="userSpaceOnUse">
<stop stop-color="#D8F520"/>
<stop offset="0.9999" stop-color="#D8F520" stop-opacity="0.0364583"/>
<stop offset="1" stop-color="#D8F520" stop-opacity="0"/>
</linearGradient>
<linearGradient id="paint10_linear_2552_18212" x1="280.71" y1="376.539" x2="178.569" y2="202.642" gradientUnits="userSpaceOnUse">
<stop stop-color="#D8F520"/>
<stop offset="0.9999" stop-color="#D8F520" stop-opacity="0.0364583"/>
<stop offset="1" stop-color="#D8F520" stop-opacity="0"/>
</linearGradient>
<linearGradient id="paint11_linear_2552_18212" x1="285.282" y1="364.539" x2="183.141" y2="190.642" gradientUnits="userSpaceOnUse">
<stop stop-color="#D8F520"/>
<stop offset="0.9999" stop-color="#D8F520" stop-opacity="0.0364583"/>
<stop offset="1" stop-color="#D8F520" stop-opacity="0"/>
</linearGradient>
<linearGradient id="paint12_linear_2552_18212" x1="289.195" y1="352.916" x2="187.053" y2="179.019" gradientUnits="userSpaceOnUse">
<stop stop-color="#D8F520"/>
<stop offset="0.9999" stop-color="#D8F520" stop-opacity="0.0364583"/>
<stop offset="1" stop-color="#D8F520" stop-opacity="0"/>
</linearGradient>
<linearGradient id="paint13_linear_2552_18212" x1="296.071" y1="339.595" x2="193.93" y2="165.699" gradientUnits="userSpaceOnUse">
<stop stop-color="#D8F520"/>
<stop offset="0.9999" stop-color="#D8F520" stop-opacity="0.0364583"/>
<stop offset="1" stop-color="#D8F520" stop-opacity="0"/>
</linearGradient>
<linearGradient id="paint14_linear_2552_18212" x1="301.476" y1="329.46" x2="199.335" y2="155.564" gradientUnits="userSpaceOnUse">
<stop stop-color="#D8F520"/>
<stop offset="0.9999" stop-color="#D8F520" stop-opacity="0.0364583"/>
<stop offset="1" stop-color="#D8F520" stop-opacity="0"/>
</linearGradient>
<linearGradient id="paint15_linear_2552_18212" x1="306.678" y1="310.535" x2="204.537" y2="136.638" gradientUnits="userSpaceOnUse">
<stop stop-color="#D8F520"/>
<stop offset="0.9999" stop-color="#D8F520" stop-opacity="0.0364583"/>
<stop offset="1" stop-color="#D8F520" stop-opacity="0"/>
</linearGradient>
<linearGradient id="paint16_linear_2552_18212" x1="309.436" y1="299.107" x2="207.295" y2="125.21" gradientUnits="userSpaceOnUse">
<stop stop-color="#D8F520"/>
<stop offset="0.9999" stop-color="#D8F520" stop-opacity="0.0364583"/>
<stop offset="1" stop-color="#D8F520" stop-opacity="0"/>
</linearGradient>
<linearGradient id="paint17_linear_2552_18212" x1="309.043" y1="284.328" x2="206.902" y2="110.431" gradientUnits="userSpaceOnUse">
<stop stop-color="#D8F520"/>
<stop offset="0.9999" stop-color="#D8F520" stop-opacity="0.0364583"/>
<stop offset="1" stop-color="#D8F520" stop-opacity="0"/>
</linearGradient>
<linearGradient id="paint18_linear_2552_18212" x1="308.32" y1="269.738" x2="206.178" y2="95.8413" gradientUnits="userSpaceOnUse">
<stop stop-color="#D8F520"/>
<stop offset="0.9999" stop-color="#D8F520" stop-opacity="0.0364583"/>
<stop offset="1" stop-color="#D8F520" stop-opacity="0"/>
</linearGradient>
<linearGradient id="paint19_linear_2552_18212" x1="307.589" y1="253.277" x2="205.448" y2="79.3803" gradientUnits="userSpaceOnUse">
<stop stop-color="#D8F520"/>
<stop offset="0.9999" stop-color="#D8F520" stop-opacity="0.0364583"/>
<stop offset="1" stop-color="#D8F520" stop-opacity="0"/>
</linearGradient>
<linearGradient id="paint20_linear_2552_18212" x1="311.16" y1="239.037" x2="209.019" y2="65.1401" gradientUnits="userSpaceOnUse">
<stop stop-color="#D8F520"/>
<stop offset="0.9999" stop-color="#D8F520" stop-opacity="0.0364583"/>
<stop offset="1" stop-color="#D8F520" stop-opacity="0"/>
</linearGradient>
</defs>
</svg>
