<svg width="88" height="88" viewBox="0 0 88 88" fill="none" xmlns="http://www.w3.org/2000/svg">
<g id="simple-icons:icon" clip-path="url(#clip0_2593_30968)">
<path id="Vector" d="M7.06492 87.7611C5.36166 87.4198 3.7975 86.5821 2.5695 85.3534C1.3415 84.1248 0.504607 82.5602 0.164254 80.8567C-0.116172 79.4387 -0.0429602 77.9734 0.377419 76.5904C0.797799 75.2073 1.5524 73.9491 2.57453 72.927C3.59666 71.9049 4.85484 71.1503 6.23788 70.7299C7.62091 70.3095 9.08621 70.2363 10.5043 70.5167C12.207 70.8577 13.7708 71.6949 14.9988 72.9229C16.2267 74.1508 17.0639 75.7146 17.4049 77.4174C17.6853 78.8354 17.6121 80.3007 17.1918 81.6838C16.7714 83.0668 16.0168 84.325 14.9946 85.3471C13.9725 86.3693 12.7143 87.1239 11.3313 87.5442C9.94826 87.9646 8.48297 88.0415 7.06492 87.7611ZM77.4943 17.4821C75.7915 17.1411 74.2277 16.3039 72.9997 15.0759C71.7718 13.848 70.9346 12.2842 70.5936 10.5814C70.3132 9.16335 70.3864 7.69806 70.8068 6.31503C71.2271 4.93199 71.9817 3.67381 73.0039 2.65168C74.026 1.62955 75.2842 0.874948 76.6672 0.454568C78.0502 0.0341882 79.5155 -0.0390238 80.9336 0.241403C82.6364 0.582405 84.2002 1.41959 85.4281 2.64754C86.6561 3.87548 87.4932 5.4393 87.8343 7.14207C88.1147 8.56012 88.0415 10.0254 87.6211 11.4084C87.2007 12.7915 86.4461 14.0497 85.424 15.0718C84.4018 16.0939 83.1437 16.8485 81.7606 17.2689C80.3776 17.6893 78.9123 17.7625 77.4943 17.4821ZM44.0763 22.0361C48.2819 22.0361 52.2126 23.2241 55.5529 25.2737L65.0313 15.7954C58.2638 10.7643 49.9128 8.33472 41.5026 8.95024C33.0924 9.56575 25.1841 13.1853 19.2213 19.1481C13.2585 25.1109 9.63894 33.0192 9.02342 41.4294C8.40791 49.8396 10.8375 58.1907 15.8686 64.9581L25.3506 55.4761C23.3105 52.1473 22.1946 48.3349 22.1178 44.4315C22.041 40.5281 23.006 36.6748 24.9136 33.2684C26.8211 29.8619 29.6022 27.0255 32.9703 25.0512C36.3385 23.077 40.1721 22.0362 44.0763 22.0361ZM62.8019 32.5227C65.3794 36.7291 66.4656 41.6807 65.8857 46.5797C65.3057 51.4788 63.0934 56.0399 59.605 59.5282C56.1167 63.0165 51.5556 65.2289 46.6566 65.8088C41.7576 66.3888 36.806 65.3025 32.5996 62.7251L23.1176 72.2034C29.885 77.2345 38.2361 79.6641 46.6462 79.0486C55.0564 78.4331 62.9648 74.8135 68.9276 68.8507C74.8904 62.8879 78.5099 54.9796 79.1254 46.5694C79.7409 38.1592 77.3114 29.8081 72.2803 23.0407L62.8019 32.5227Z" fill="#D8F520"/>
</g>
<defs>
<clipPath id="clip0_2593_30968">
<rect width="88" height="88" fill="white"/>
</clipPath>
</defs>
</svg>
