<svg width="93" height="94" viewBox="0 0 93 94" fill="none" xmlns="http://www.w3.org/2000/svg">
<g id="Group 65">
<g id="Clip path group">
<mask id="mask0_2593_27613" style="mask-type:luminance" maskUnits="userSpaceOnUse" x="0" y="0" width="93" height="94">
<g id="962c8a6743">
<path id="Vector" d="M0 0H93V93.0147H0V0Z" fill="white"/>
</g>
</mask>
<g mask="url(#mask0_2593_27613)">
<g id="Group">
<path id="Vector_2" d="M75.4719 0H17.5281C7.86348 0 0 7.86349 0 17.5281V75.4865C0 85.1365 7.86348 93.0147 17.5281 93.0147H75.4719C85.1365 93.0147 93 85.1365 93 75.4865V17.5281C93 7.86349 85.1365 0 75.4719 0ZM26.1091 58.6613C23.6051 58.6613 21.1011 57.9584 20.0321 57.2409L19.666 56.8748L20.735 53.6533C20.735 53.6533 20.735 53.3018 21.1011 53.3018C21.4525 53.3018 21.4525 53.3018 21.4525 53.3018C22.5361 54.0194 24.3226 54.7369 26.4606 54.7369C28.6131 54.7369 30.0482 53.6533 30.0482 52.2329C30.0482 51.1493 29.3307 50.0803 26.4606 49.0113C22.1701 47.5763 20.3836 45.4384 20.3836 42.2168C20.3836 38.2778 23.6051 35.4223 28.6131 35.4223C31.1171 35.4223 32.9036 36.1252 33.9726 36.4913C34.3387 36.4913 34.3387 36.8427 34.3387 36.8427L33.2551 40.0642C33.2551 40.0642 33.2551 40.4303 32.9036 40.4303H32.5522C31.4686 40.0642 30.0482 39.3467 28.247 39.3467C25.743 39.3467 25.0401 40.7818 25.0401 41.4993C25.0401 42.9343 25.743 43.6372 28.9646 44.7208C32.9036 46.1412 34.6901 48.2938 34.6901 51.5154C34.6901 54.7369 32.5522 58.6613 26.1091 58.6613ZM56.8748 57.9584C56.8748 57.9584 57.2263 57.9584 57.2263 58.3099C57.2263 58.6613 57.2263 58.6613 57.2263 58.6613L56.5087 61.5314C56.5087 61.8829 56.1573 61.8829 56.1573 61.8829C53.3018 61.1653 50.7978 60.4625 47.5763 59.0274C47.2102 59.0274 46.8588 58.6613 46.1412 58.6613C41.1332 58.3099 36.1252 54.7369 36.1252 47.2249C36.1252 40.0642 40.4157 35.4223 46.8588 35.4223C52.9358 35.4223 57.2263 40.0642 57.2263 46.8588C57.2263 51.5154 55.4398 55.0883 52.2182 56.8748C53.6533 57.2409 55.4398 57.5924 56.8748 57.9584ZM73.6854 58.3099H60.8139C60.4478 58.3099 60.4478 57.9584 60.4478 57.9584V36.1252C60.4478 35.7737 60.8139 35.7737 60.8139 35.7737H64.3869C64.7383 35.7737 64.7383 36.1252 64.7383 36.1252V54.0194H73.334C73.6854 54.0194 73.6854 54.3708 73.6854 54.3708V57.9584H74.0368C74.0368 58.3099 73.6854 58.3099 73.6854 58.3099Z" fill="#83CD29"/>
</g>
</g>
</g>
<path id="Vector_3" d="M46.8593 39.3477C42.9203 39.3477 41.1338 43.2867 41.1338 46.8597C41.1338 51.1502 43.2864 54.3717 46.4933 54.3717C50.4323 54.3717 52.2188 50.4473 52.2188 46.8597C52.5849 43.2867 50.7984 39.3477 46.8593 39.3477Z" fill="#83CD29"/>
</g>
</svg>
