<svg width="27" height="28" viewBox="0 0 27 28" fill="none" xmlns="http://www.w3.org/2000/svg">
<g id="Group">
<path id="Vector" d="M22.3333 12.0007L25.6667 18.0007L22.3333 18.6673V22.6673H20.3333L16.3333 22.0007L15.6667 26.6673H5.66667L4.33333 19.7467C2.28 17.8027 1 15.0513 1 12.0007C1 6.10932 5.77533 1.33398 11.6667 1.33398C17.558 1.33398 22.3333 6.10932 22.3333 12.0007Z" stroke="#868686" stroke-width="2" stroke-linecap="round" stroke-linejoin="round"/>
<path id="Vector_2" d="M8.33301 10.6673C8.33301 10.008 8.5285 9.36358 8.89478 8.81542C9.26105 8.26725 9.78164 7.84001 10.3907 7.58772C10.9998 7.33543 11.67 7.26942 12.3166 7.39803C12.9632 7.52665 13.5572 7.84412 14.0234 8.3103C14.4895 8.77647 14.807 9.37041 14.9356 10.017C15.0642 10.6636 14.9982 11.3338 14.7459 11.9429C14.4936 12.552 14.0664 13.0726 13.5182 13.4389C12.9701 13.8052 12.3256 14.0007 11.6663 14.0007V16.0007M11.6663 20.0007V20.6673" stroke="#868686" stroke-width="2" stroke-linecap="round" stroke-linejoin="round"/>
</g>
</svg>
