<svg width="24" height="25" viewBox="0 0 24 25" fill="none" xmlns="http://www.w3.org/2000/svg">
<g id="mdi:target-account">
<path id="Vector" d="M20.95 11.7012H22.5V13.7012H20.95C20.5 17.8712 17.17 21.2012 13 21.6512V23.2012H11V21.6512C6.83 21.2012 3.5 17.8712 3.05 13.7012H1.5V11.7012H3.05C3.5 7.53117 6.83 4.20117 11 3.75117V2.20117H13V3.75117C17.17 4.20117 20.5 7.53117 20.95 11.7012ZM5.07 11.7012H6.5V13.7012H5.07C5.28252 15.1986 5.97568 16.5865 7.04515 17.656C8.11462 18.7255 9.50254 19.4187 11 19.6312V18.2012H13V19.6312C14.4975 19.4187 15.8854 18.7255 16.9549 17.656C18.0243 16.5865 18.7175 15.1986 18.93 13.7012H17.5V11.7012H18.93C18.7175 10.2037 18.0243 8.81579 16.9549 7.74632C15.8854 6.67685 14.4975 5.98369 13 5.77117V7.20117H11V5.77117C9.50254 5.98369 8.11462 6.67685 7.04515 7.74632C5.97568 8.81579 5.28252 10.2037 5.07 11.7012ZM16 16.7012H8V15.7012C8 14.3712 10.67 13.7012 12 13.7012C13.33 13.7012 16 14.3712 16 15.7012V16.7012ZM12 8.70117C12.5304 8.70117 13.0391 8.91189 13.4142 9.28696C13.7893 9.66203 14 10.1707 14 10.7012C14 11.2316 13.7893 11.7403 13.4142 12.1154C13.0391 12.4905 12.5304 12.7012 12 12.7012C11.4696 12.7012 10.9609 12.4905 10.5858 12.1154C10.2107 11.7403 10 11.2316 10 10.7012C10 10.1707 10.2107 9.66203 10.5858 9.28696C10.9609 8.91189 11.4696 8.70117 12 8.70117Z" fill="#D8D8D8"/>
</g>
</svg>
