<svg width="24" height="25" viewBox="0 0 24 25" fill="none" xmlns="http://www.w3.org/2000/svg">
<g id="ion:wallet-outline">
<path id="Vector" d="M19.5 7.45117H4.5C3.25736 7.45117 2.25 8.45853 2.25 9.70117V18.7012C2.25 19.9438 3.25736 20.9512 4.5 20.9512H19.5C20.7426 20.9512 21.75 19.9438 21.75 18.7012V9.70117C21.75 8.45853 20.7426 7.45117 19.5 7.45117Z" stroke="#D8D8D8" stroke-width="2" stroke-linejoin="round"/>
<path id="Vector_2" d="M19.2825 7.45042V6.04417C19.2824 5.69926 19.2062 5.35864 19.0592 5.04659C18.9123 4.73454 18.6984 4.45876 18.4326 4.23893C18.1668 4.0191 17.8558 3.86063 17.5217 3.77484C17.1877 3.68905 16.8388 3.67804 16.5 3.74261L4.155 5.84964C3.6189 5.9518 3.13526 6.23785 2.78749 6.65844C2.43972 7.07903 2.24963 7.6078 2.25 8.15354V10.4504" stroke="#D8D8D8" stroke-width="2" stroke-linejoin="round"/>
<path id="Vector_3" d="M17.25 15.7012C16.9533 15.7012 16.6633 15.6132 16.4166 15.4484C16.17 15.2836 15.9777 15.0493 15.8642 14.7752C15.7506 14.5011 15.7209 14.1995 15.7788 13.9085C15.8367 13.6176 15.9796 13.3503 16.1893 13.1405C16.3991 12.9307 16.6664 12.7879 16.9574 12.73C17.2483 12.6721 17.5499 12.7018 17.824 12.8154C18.0981 12.9289 18.3324 13.1211 18.4972 13.3678C18.662 13.6145 18.75 13.9045 18.75 14.2012C18.75 14.599 18.592 14.9805 18.3107 15.2618C18.0294 15.5431 17.6478 15.7012 17.25 15.7012Z" fill="#D8D8D8"/>
</g>
</svg>
